<svg width="90" height="90" viewBox="0 0 90 90" fill="none" xmlns="http://www.w3.org/2000/svg">
<path d="M76.1246 89.1664H58.3329C56.0412 89.1664 54.1662 87.2914 54.1662 84.9997C54.1662 82.708 56.0412 80.833 58.3329 80.833H76.1246C78.7496 80.833 80.8329 78.708 80.8329 76.1247V58.333C80.8329 56.0414 82.7079 54.1664 84.9996 54.1664C87.2912 54.1664 89.1662 56.0414 89.1662 58.333V76.1247C89.1662 83.2914 83.2912 89.1664 76.1246 89.1664ZM31.6662 89.1664H13.8746C6.66629 89.1664 0.832916 83.2914 0.832916 76.1247V58.333C0.832916 56.0414 2.70792 54.1664 4.99958 54.1664C7.29125 54.1664 9.16625 56.0414 9.16625 58.333V76.1247C9.16625 78.7497 11.2913 80.833 13.8746 80.833H31.6662C33.9579 80.833 35.8329 82.708 35.8329 84.9997C35.8329 87.2914 33.9579 89.1664 31.6662 89.1664ZM43.4996 67.458C37.6662 67.458 32.083 66.0414 28.4997 63.2497C26.6663 61.833 26.3329 59.208 27.7495 57.4164C29.1662 55.583 31.7913 55.2497 33.583 56.6664C37.5829 59.7497 48.4579 60.208 55.4579 56.333C57.4579 55.208 59.9996 55.958 61.1246 57.958C62.2496 59.958 61.4996 62.4997 59.4996 63.6247C54.8746 66.208 49.0829 67.458 43.4996 67.458ZM42.4996 51.958C41.4162 51.958 40.3329 51.5414 39.4996 50.708C37.8746 49.0414 37.9162 46.4164 39.5829 44.833L40.6246 43.833C40.7496 43.708 40.8329 43.5414 40.8329 43.3747V30.7497C40.8329 28.458 42.7079 26.583 44.9996 26.583C47.2912 26.583 49.1662 28.458 49.1662 30.7497V43.3747C49.1662 45.7914 48.1663 48.1247 46.4579 49.7914L45.4163 50.7914C44.5829 51.583 43.5412 51.958 42.4996 51.958ZM62.4996 37.333C60.2079 37.333 58.3329 35.458 58.3329 33.1663V28.2913C58.3329 25.9997 60.2079 24.1247 62.4996 24.1247C64.7912 24.1247 66.6662 25.9997 66.6662 28.2913V33.1663C66.6662 35.458 64.7912 37.333 62.4996 37.333ZM27.4996 37.333C25.2079 37.333 23.3329 35.458 23.3329 33.1663V28.2913C23.3329 25.9997 25.2079 24.1247 27.4996 24.1247C29.7912 24.1247 31.6662 25.9997 31.6662 28.2913V33.1663C31.6662 35.458 29.7912 37.333 27.4996 37.333ZM84.9996 35.833C82.7079 35.833 80.8329 33.958 80.8329 31.6663V13.8747C80.8329 11.2497 78.7079 9.16634 76.1246 9.16634H58.3329C56.0412 9.16634 54.1662 7.29134 54.1662 4.99967C54.1662 2.70801 56.0412 0.833008 58.3329 0.833008H76.1246C83.3329 0.833008 89.1662 6.70801 89.1662 13.8747V31.6663C89.1662 33.958 87.2912 35.833 84.9996 35.833ZM4.99958 35.833C2.70792 35.833 0.832916 33.958 0.832916 31.6663V13.8747C0.832916 6.66634 6.70796 0.833008 13.8746 0.833008H31.6662C33.9579 0.833008 35.8329 2.70801 35.8329 4.99967C35.8329 7.29134 33.9579 9.16634 31.6662 9.16634H13.8746C11.2496 9.16634 9.16625 11.2913 9.16625 13.8747V31.6663C9.16625 33.958 7.29125 35.833 4.99958 35.833Z" fill="#B2B2B2"/>
</svg>
