<svg width="24" height="24" viewBox="0 0 24 24" fill="none" xmlns="http://www.w3.org/2000/svg">
<path d="M0 6.00012C0 4.89555 0.895431 4.00012 2 4.00012H22C23.1046 4.00012 24 4.89555 24 6.00012V18.0001C24 19.1047 23.1046 20.0001 22 20.0001H2C0.89543 20.0001 0 19.1047 0 18.0001V6.00012Z" fill="#F2A800"/>
<path d="M0 6.00012C0 4.89555 0.895431 4.00012 2 4.00012H22C23.1046 4.00012 24 4.89555 24 6.00012V14.6668H0V6.00012Z" fill="#0033A0"/>
<path d="M0 6.00012C0 4.89555 0.895431 4.00012 2 4.00012H22C23.1046 4.00012 24 4.89555 24 6.00012V9.33346H0V6.00012Z" fill="#D90012"/>
</svg>
