<svg width="24" height="24" viewBox="0 0 24 24" fill="none" xmlns="http://www.w3.org/2000/svg">
<path d="M2 4C0.89543 4 0 4.89543 0 6V17.9999C0 19.1045 0.895431 19.9999 2 19.9999H22C23.1046 19.9999 24 19.1045 24 17.9999V6C24 4.89543 23.1046 4 22 4H2Z" fill="#F0F0F0"/>
<path d="M0 6.00012C0 4.89555 0.895431 4.00012 2 4.00012H22C23.1046 4.00012 24 4.89555 24 6.00012V18.0003C24 19.1049 23.1046 20.0003 22 20.0003H2C0.89543 20.0003 0 19.1049 0 18.0003V6.00012Z" fill="#0052B4"/>
<path d="M0 6.00012C0 4.89555 0.895431 4.00012 2 4.00012H22C23.1046 4.00012 24 4.89555 24 6.00012V9.33333H0V6.00012Z" fill="#F0F0F0"/>
<path d="M0 14.6665H24V17.9997C24 19.1043 23.1046 19.9997 22 19.9997H2C0.89543 19.9997 0 19.1043 0 17.9997V14.6665Z" fill="#D80027"/>
</svg>
