<svg width="24" height="24" viewBox="0 0 24 24" fill="none" xmlns="http://www.w3.org/2000/svg">
<path d="M0 6C0 4.89543 0.895431 4 2 4H22C23.1046 4 24 4.89543 24 6V18.0002C24 19.1047 23.1046 20.0002 22 20.0002H2C0.89543 20.0002 0 19.1047 0 18.0002V6Z" fill="#F0F0F0"/>
<path d="M0 5.99988H24V7.99971H0V5.99988ZM0 10H24V11.9999H0V10ZM0 13.9997H24V15.9995H0V13.9997ZM0 17.9999H24C24 19.1044 23.1046 19.9997 22.0002 19.9997H1.99983C0.895356 19.9997 0 19.1044 0 17.9999Z" fill="#D80027"/>
<path d="M0 6C0 4.89543 0.895431 4 2 4H12V12.6155H0V6Z" fill="#2E52B2"/>
<path d="M4.67911 7.52932L4.48584 8.12389H3.86072L4.36655 8.49115L4.17328 9.08567L4.67911 8.7184L5.18461 9.08567L4.99139 8.49115L5.49722 8.12389H4.87205L4.67911 7.52932ZM4.87205 10.2694L4.67911 9.67493L4.48584 10.2694H3.86072L4.36655 10.6368L4.17328 11.2313L4.67911 10.864L5.18461 11.2313L4.99139 10.6368L5.49722 10.2694H4.87205ZM2.23012 10.2694L2.03714 9.67493L1.84388 10.2694H1.21875L1.72458 10.6368L1.53131 11.2313L2.03714 10.864L2.54269 11.2313L2.34947 10.6368L2.8552 10.2694H2.23012ZM2.03714 7.52932L1.84388 8.12389H1.21875L1.72458 8.49115L1.53131 9.08567L2.03714 8.7184L2.54269 9.08567L2.34947 8.49115L2.8552 8.12389H2.23012L2.03714 7.52932ZM4.67911 5.38367L4.48584 5.97828H3.86072L4.36655 6.34559L4.17328 6.9401L4.67911 6.57279L5.18461 6.9401L4.99139 6.34559L5.49722 5.97828H4.87205L4.67911 5.38367ZM2.03714 5.38367L1.84388 5.97828H1.21875L1.72458 6.34559L1.53131 6.9401L2.03714 6.57279L2.54269 6.9401L2.34947 6.34559L2.8552 5.97828H2.23012L2.03714 5.38367ZM7.32103 7.52932L7.12781 8.12389H6.50269L7.00847 8.49115L6.8153 9.08567L7.32103 8.7184L7.82662 9.08567L7.63336 8.49115L8.13919 8.12389H7.51406L7.32103 7.52932ZM7.51406 10.2694L7.32103 9.67493L7.12781 10.2694H6.50269L7.00847 10.6368L6.8153 11.2313L7.32103 10.864L7.82662 11.2313L7.63336 10.6368L8.13919 10.2694H7.51406ZM10.156 10.2694L9.96305 9.67493L9.76978 10.2694H9.1447L9.65044 10.6368L9.45722 11.2313L9.96305 10.864L10.4686 11.2313L10.2753 10.6368L10.7812 10.2694H10.156ZM9.96305 7.52932L9.76978 8.12389H9.1447L9.65044 8.49115L9.45722 9.08567L9.96305 8.7184L10.4686 9.08567L10.2753 8.49115L10.7812 8.12389H10.156L9.96305 7.52932ZM7.32103 5.38367L7.12781 5.97828H6.50269L7.00847 6.34559L6.8153 6.9401L7.32103 6.57279L7.82662 6.9401L7.63336 6.34559L8.13919 5.97828H7.51406L7.32103 5.38367ZM9.96305 5.38367L9.76978 5.97828H9.1447L9.65044 6.34559L9.45722 6.9401L9.96305 6.57279L10.4686 6.9401L10.2753 6.34559L10.7812 5.97828H10.156L9.96305 5.38367Z" fill="#F0F0F0"/>
</svg>
