<svg width="100" height="100" viewBox="0 0 100 100" fill="none" xmlns="http://www.w3.org/2000/svg">
<g clip-path="url(#clip0_491_13189)">
<path d="M40.6258 18.75H21.8758C20.1499 18.75 18.7508 20.1491 18.7508 21.875V40.625C18.7508 42.3509 20.1499 43.75 21.8758 43.75H40.6258C42.3517 43.75 43.7508 42.3509 43.7508 40.625V21.875C43.7508 20.1491 42.3517 18.75 40.6258 18.75Z" fill="#F0F0F0"/>
<path d="M40.6258 56.25H21.8758C20.1499 56.25 18.7508 57.6491 18.7508 59.375V78.125C18.7508 79.8509 20.1499 81.25 21.8758 81.25H40.6258C42.3517 81.25 43.7508 79.8509 43.7508 78.125V59.375C43.7508 57.6491 42.3517 56.25 40.6258 56.25Z" fill="#F0F0F0"/>
<path d="M78.1258 18.75H59.3758C57.6499 18.75 56.2508 20.1491 56.2508 21.875V40.625C56.2508 42.3509 57.6499 43.75 59.3758 43.75H78.1258C79.8517 43.75 81.2508 42.3509 81.2508 40.625V21.875C81.2508 20.1491 79.8517 18.75 78.1258 18.75Z" fill="#F0F0F0"/>
<path d="M40.6258 18.75H21.8758C20.1499 18.75 18.7508 20.1491 18.7508 21.875V40.625C18.7508 42.3509 20.1499 43.75 21.8758 43.75H40.6258C42.3517 43.75 43.7508 42.3509 43.7508 40.625V21.875C43.7508 20.1491 42.3517 18.75 40.6258 18.75Z" stroke="#B2B2B2" stroke-width="5" stroke-linecap="round" stroke-linejoin="round"/>
<path d="M40.6258 56.25H21.8758C20.1499 56.25 18.7508 57.6491 18.7508 59.375V78.125C18.7508 79.8509 20.1499 81.25 21.8758 81.25H40.6258C42.3517 81.25 43.7508 79.8509 43.7508 78.125V59.375C43.7508 57.6491 42.3517 56.25 40.6258 56.25Z" stroke="#B2B2B2" stroke-width="5" stroke-linecap="round" stroke-linejoin="round"/>
<path d="M78.1258 18.75H59.3758C57.6499 18.75 56.2508 20.1491 56.2508 21.875V40.625C56.2508 42.3509 57.6499 43.75 59.3758 43.75H78.1258C79.8517 43.75 81.2508 42.3509 81.2508 40.625V21.875C81.2508 20.1491 79.8517 18.75 78.1258 18.75Z" stroke="#B2B2B2" stroke-width="5" stroke-linecap="round" stroke-linejoin="round"/>
<path d="M56.2508 56.25V68.75" stroke="#B2B2B2" stroke-width="5" stroke-linecap="round" stroke-linejoin="round"/>
<path d="M56.2508 81.25H68.7508V56.25" stroke="#B2B2B2" stroke-width="5" stroke-linecap="round" stroke-linejoin="round"/>
<path d="M68.7508 62.5H81.2508" stroke="#B2B2B2" stroke-width="5" stroke-linecap="round" stroke-linejoin="round"/>
<path d="M81.2508 75V81.25" stroke="#B2B2B2" stroke-width="5" stroke-linecap="round" stroke-linejoin="round"/>
</g>
<defs>
<clipPath id="clip0_491_13189">
<rect width="100" height="100" fill="white"/>
</clipPath>
</defs>
</svg>
